#!OML:ASF X:\für Bonn\!DataBase\2005_08_10_Bjorn_Final\c3d\bjorn.ASF
:FULLY-SPECIFIED
:DEGREES
93
root -7.96304 18.6378 -0.175964 709.251 79.0292 -12.9596
lowerback -1.67707 -0.89812 4.47382
upperback 11.3617 -1.58975 4.36259
thorax 13.3094 -0.397558 2.13508
lowerneck 8.53858 2.05544 1.38002
upperneck 12.9117 4.74251 -14.1745
head 2.75975 2.3442 -4.56262
rclavicle -1.74931e-014 1.27222e-014
rhumerus -20.8107 -9.70713 -79.3974
rradius 44.2587
rwrist 1.51254
rhand -9.55476 14.7091
rfingers 7.12502
rthumb 16.4124 -14.6165
lclavicle -1.74931e-014 1.27222e-014
lhumerus -30.5843 -11.4933 68.4156
lradius 39.2534
lwrist -20.5988
lhand -31.9473 -14.5885
lfingers 7.12502
lthumb -5.19783 15.3278
rfemur 1.50911 4.13703 16.7075
rtibia 28.7209
rfoot -22.5297 18.1035
rtoes -5.99159
lfemur -32.5522 9.74868 -10.0803
ltibia 36.0606
lfoot 0.962307 -2.77877
ltoes -8.84936
94
root -7.88251 18.6565 -0.21238 708.989 79.0327 -13.5024
lowerback -1.69556 -0.828063 4.36001
upperback 11.3702 -1.48058 4.2768
thorax 13.3282 -0.352409 2.1177
lowerneck 8.40548 2.00357 1.30829
upperneck 12.7805 4.61758 -13.9394
head 2.72797 2.27903 -4.4741
rclavicle -2.90226e-014 -5.32743e-014
rhumerus -20.8177 -10.0061 -79.3936
rradius 43.9996
rwrist 1.51456
rhand -9.59029 14.8027
rfingers 7.12502
rthumb 16.3782 -14.5258
lclavicle -2.90226e-014 -5.32743e-014
lhumerus -30.4163 -11.5923 68.1967
lradius 39.2882
lwrist -20.3479
lhand -31.9734 -14.5877
lfingers 7.12502
lthumb -5.22309 15.3279
rfemur 1.63305 4.08474 16.5848
rtibia 28.3171
rfoot -21.915 18.3542
rtoes -5.40375
lfemur -32.6609 9.74253 -10.1614
ltibia 36.1608
lfoot 0.686958 -2.88825
ltoes -8.83713
95
root -7.80145 18.6733 -0.248835 708.699 79.0448 -14.064
lowerback -1.69064 -0.775232 4.21429
upperback 11.3642 -1.3913 4.20681
thorax 13.3161 -0.321784 2.13222
lowerneck 8.21633 1.97132 1.17149
upperneck 12.7062 4.52168 -13.6602
head 2.72366 2.22209 -4.35996
rclavicle -8.74653e-015 -2.06736e-014
rhumerus -20.8677 -10.2304 -79.3744
rradius 43.7601
rwrist 1.52378
rhand -9.67081 14.8794
rfingers 7.12502
rthumb 16.3006 -14.4555
lclavicle -8.74653e-015 -2.06736e-014
lhumerus -30.3164 -11.5362 67.9757
lradius 39.3651
lwrist -20.192
lhand -32.0107 -14.5739
lfingers 7.12502
lthumb -5.25906 15.3408
rfemur 1.76226 4.03156 16.4664
rtibia 27.9385
rfoot -21.2561 18.6233
rtoes -4.67969
lfemur -32.7604 9.75305 -10.2401
ltibia 36.2701
lfoot 0.437331 -3.00718
ltoes -8.45604
96
root -7.71966 18.6905 -0.285968 708.481 79.0639 -14.5295
lowerback -1.67001 -0.714403 4.05064
upperback 11.3621 -1.28798 4.1338
thorax 13.2985 -0.285966 2.15532
lowerneck 7.95432 1.92848 1.04535
upperneck 12.7061 4.42505 -13.3753
head 2.75362 2.16025 -4.24497
rclavicle -1.55052e-014 -4.05521e-014
rhumerus -20.925 -10.4593 -79.3345
rradius 43.5472
rwrist 1.47296
rhand -9.72992 14.8789
rfingers 7.12502
rthumb 16.2437 -14.4606
lclavicle -1.55052e-014 -4.05521e-014
lhumerus -30.2208 -11.4182 67.7622
lradius 39.4631
lwrist -20.0363
lhand -32.0289 -14.5859
lfingers 7.12502
lthumb -5.27661 15.3284
rfemur 1.90678 3.9283 16.315
rtibia 27.5929
rfoot -20.6169 18.859
rtoes -4.24002
lfemur -32.8402 9.75733 -10.3465
ltibia 36.3821
lfoot 0.153967 -3.12848
ltoes -8.46016
97
root -7.63853 18.7068 -0.322388 708.026 79.0978 -15.2343
lowerback -1.63848 -0.638071 3.90745
upperback 11.342 -1.16518 4.07149
thorax 13.2523 -0.239672 2.18048
lowerneck 7.6805 1.86225 0.979511
upperneck 12.7592 4.31056 -13.1049
head 2.80125 2.09035 -4.14512
rclavicle 5.84427e-014 2.14687e-014
rhumerus -21.0442 -10.7294 -79.2771
rradius 43.3548
rwrist 1.36807
rhand -9.76998 14.8766
rfingers 7.12502
rthumb 16.2051 -14.4661
lclavicle 5.84427e-014 2.14687e-014
lhumerus -30.1324 -11.2838 67.5365
lradius 39.6251
lwrist -19.9493
lhand -31.9873 -14.5732
lfingers 7.12502
lthumb -5.23651 15.3421
rfemur 2.00205 3.82516 16.2316
rtibia 27.3372
rfoot -20.0329 19.0015
rtoes -4.24727
lfemur -32.9363 9.74142 -10.3998
ltibia 36.5252
lfoot -0.113645 -3.25458
ltoes -8.15651
98
root -7.55618 18.7247 -0.36006 707.747 79.1465 -15.7505
lowerback -1.61214 -0.575237 3.70087
upperback 11.3232 -1.05743 4.02477
thorax 13.2122 -0.208315 2.25628
lowerneck 7.42236 1.80194 0.840172
upperneck 12.7917 4.19757 -12.8284
head 2.83972 2.02044 -4.03164
rclavicle 3.69739e-014 -4.05521e-014
rhumerus -21.1571 -10.9601 -79.1742
rradius 43.1523
rwrist 1.30351
rhand -9.80519 14.8885
rfingers 7.12502
rthumb 16.1712 -14.4569
lclavicle 3.69739e-014 -4.05521e-014
lhumerus -30.0549 -10.9659 67.332
lradius 39.7955
lwrist -19.8869
lhand -31.9189 -14.644
lfingers 7.12502
lthumb -5.17045 15.273
rfemur 2.07631 3.72047 16.0961
rtibia 27.1476
rfoot -19.4296 19.1473
rtoes -4.29761
lfemur -33.0233 9.74739 -10.5147
ltibia 36.6595
lfoot -0.383943 -3.40749
ltoes -8.27491
99
root -7.47331 18.7352 -0.396472 707.452 79.1971 -16.2717
lowerback -1.58315 -0.495244 3.48562
upperback 11.2878 -0.925125 3.96772
thorax 13.1493 -0.165846 2.32774
lowerneck 7.18799 1.72156 0.7472
upperneck 12.8526 4.06327 -12.546
head 2.88216 1.94276 -3.92523
rclavicle 3.97569e-015 2.22639e-014
rhumerus -21.3207 -11.2711 -79.0735
rradius 42.9549
rwrist 1.27894
rhand -9.84811 14.8936
rfingers 7.12502
rthumb 16.1299 -14.4551
lclavicle 3.97569e-015 2.22639e-014
lhumerus -29.914 -10.7847 67.09
lradius 39.9032
lwrist -19.7762
lhand -31.8495 -14.6074
lfingers 7.12502
lthumb -5.10344 15.3111
rfemur 2.1024 3.62152 15.9598
rtibia 27.0582
rfoot -18.7334 19.3424
rtoes -4.03998
lfemur -33.1083 9.78346 -10.6231
ltibia 36.8001
lfoot -0.633553 -3.57797
ltoes -8.0801
100
root -7.38969 18.7531 -0.433677 707.146 79.2326 -16.7918
lowerback -1.53543 -0.395635 3.3293
upperback 11.2517 -0.766461 3.8687
thorax 13.0712 -0.101529 2.32308
lowerneck 6.96237 1.62964 0.724225
upperneck 12.8906 3.91025 -12.2513
head 2.91607 1.8601 -3.82745
rclavicle -2.46493e-014 5.64548e-014
rhumerus -21.507 -11.6426 -79.0186
rradius 42.7412
rwrist 1.27244
rhand -9.91507 14.881
rfingers 7.12502
rthumb 16.0654 -14.473
lclavicle -2.46493e-014 5.64548e-014
lhumerus -29.7081 -10.6473 66.7688
lradius 39.9986
lwrist -19.6592
lhand -31.7672 -14.5704
lfingers 7.12502
lthumb -5.02392 15.3501
rfemur 2.08775 3.54883 15.8356
rtibia 27.0463
rfoot -18.066 19.4724
rtoes -4.04451
lfemur -33.1421 9.81202 -10.7284
ltibia 36.9055
lfoot -0.894342 -3.74397
ltoes -7.94137
101
root -7.3054 18.772 -0.472584 706.788 79.2992 -17.3526
lowerback -1.44656 -0.302429 3.179
upperback 11.1715 -0.615406 3.77352
thorax 12.9148 -0.0412983 2.31547
lowerneck 6.76685 1.52746 0.658585
upperneck 13.0091 3.74814 -11.9045
head 2.96811 1.77229 -3.70752
rclavicle 1.82882e-014 2.3059e-014
rhumerus -21.7842 -12.0336 -78.9234
rradius 42.5489
rwrist 1.26065
rhand -9.93695 14.8575
rfingers 7.12502
rthumb 16.0444 -14.4982
lclavicle 1.82882e-014 2.3059e-014
lhumerus -29.5673 -10.4811 66.4709
lradius 40.1066
lwrist -19.5292
lhand -31.6457 -14.5499
lfingers 7.12502
lthumb -4.90664 15.3733
rfemur 2.00838 3.41809 15.7009
rtibia 27.1421
rfoot -17.3567 19.6178
rtoes -4.13097
lfemur -33.1634 9.86164 -10.8534
ltibia 36.9774
lfoot -1.11962 -3.95746
ltoes -7.9503
102
root -7.22053 18.7918 -0.512 706.452 79.3945 -17.8665
lowerback -1.33048 -0.209512 3.01807
upperback 11.072 -0.462631 3.67303
thorax 12.7188 0.018924 2.30661
lowerneck 6.66397 1.41428 0.585346
upperneck 13.0906 3.56479 -11.5558
head 2.99318 1.67937 -3.58763
rclavicle 3.02153e-014 1.59028e-015
rhumerus -22.1267 -12.4391 -78.8139
rradius 42.3537
rwrist 1.30527
rhand -9.98069 14.8176
rfingers 7.12502
rthumb 16.0022 -14.5415
lclavicle 3.02153e-014 1.59028e-015
lhumerus -29.4342 -10.2467 66.1587
lradius 40.204
lwrist -19.5134
lhand -31.558 -14.5835
lfingers 7.12502
lthumb -4.82197 15.3417
rfemur 1.90898 3.30702 15.5562
rtibia 27.2944
rfoot -16.5576 19.7062
rtoes -4.27771
lfemur -33.1233 9.88754 -10.9985
ltibia 36.9816
lfoot -1.31462 -4.15693
ltoes -7.74408
103
root -7.13593 18.8141 -0.551181 706.085 79.505 -18.3907
lowerback -1.19177 -0.129876 2.86439
upperback 10.9758 -0.325775 3.54736
thorax 12.5129 0.074302 2.26373
lowerneck 6.66774 1.30724 0.453115
upperneck 12.8316 3.31192 -10.8677
head 3.26785 1.59831 -3.71431
rclavicle -4.92986e-014 -4.21423e-014
rhumerus -22.4714 -12.8041 -78.7529
rradius 42.1782
rwrist 1.30794
rhand -9.99574 14.7819
rfingers 7.12502
rthumb 15.9877 -14.5784
lclavicle -4.92986e-014 -4.21423e-014
lhumerus -29.2722 -9.87751 65.7855
lradius 40.28
lwrist -19.6141
lhand -31.4922 -14.6315
lfingers 7.12502
lthumb -4.75842 15.2951
rfemur 1.75866 3.18464 15.419
rtibia 27.5566
rfoot -15.7503 19.7604
rtoes -4.55156
lfemur -33.0298 9.84957 -11.1256
ltibia 36.9354
lfoot -1.47625 -4.32745
ltoes -7.50899
104
root -7.04933 18.8397 -0.589808 705.801 79.6084 -18.809
lowerback -1.0696 -0.039127 2.67877
upperback 10.8871 -0.174965 3.44178
thorax 12.3271 0.132427 2.26284
lowerneck 6.53766 1.18641 0.290699
upperneck 12.9582 3.11853 -10.4777
head 3.3066 1.49506 -3.54519
rclavicle 1.23246e-014 2.14687e-014
rhumerus -22.7691 -13.2246 -78.6189
rradius 41.8854
rwrist 1.41683
rhand -10.0521 14.7914
rfingers 7.12502
rthumb 15.9334 -14.5732
lclavicle 1.23246e-014 2.14687e-014
lhumerus -29.1166 -9.55764 65.4567
lradius 40.3969
lwrist -19.6403
lhand -31.473 -14.6853
lfingers 7.12502
lthumb -4.7399 15.2417
rfemur 1.58333 3.07266 15.2629
rtibia 27.9023
rfoot -14.9125 19.8006
rtoes -5.06899
lfemur -32.8718 9.81642 -11.2674
ltibia 36.838
lfoot -1.66512 -4.4947
ltoes -7.34772
105
root -6.96176 18.8646 -0.626227 705.609 79.7097 -19.1146
lowerback -0.963924 0.0514808 2.44423
upperback 10.8115 -0.0216805 3.32401
thorax 12.1669 0.188094 2.27685
lowerneck 6.43547 1.0705 0.0499589
upperneck 13.0436 2.91574 -10.0204
head 3.32309 1.38717 -3.33809
rclavicle 2.78299e-015 -9.54166e-015
rhumerus -23.0319 -13.7136 -78.4968
rradius 41.5232
rwrist 1.58762
rhand -10.109 14.8076
rfingers 7.12502
rthumb 15.8787 -14.5613
lclavicle 2.78299e-015 -9.54166e-015
lhumerus -28.9289 -9.20456 65.1124
lradius 40.5113
lwrist -19.7217
lhand -31.5595 -14.6459
lfingers 7.12502
lthumb -4.82342 15.2792
rfemur 1.35502 2.98904 15.1044
rtibia 28.3781
rfoot -14.1274 19.7406
rtoes -5.91721
lfemur -32.6827 9.83216 -11.4354
ltibia 36.7243
lfoot -1.82877 -4.66836
ltoes -7.21865
106
root -6.87348 18.8935 -0.662173 705.29 79.8071 -19.5371
lowerback -0.89789 0.158977 2.2582
upperback 10.7584 0.150989 3.17598
thorax 12.0573 0.260469 2.23465
lowerneck 6.31845 0.93513 -0.172279
upperneck 13.1396 2.68079 -9.49569
head 3.34435 1.26518 -3.11298
rclavicle -1.39149e-014 6.36111e-015
rhumerus -23.3019 -14.1995 -78.4226
rradius 41.2007
rwrist 1.6525
rhand -10.238 14.8391
rfingers 7.12502
rthumb 15.7544 -14.5398
lclavicle -1.39149e-014 6.36111e-015
lhumerus -28.6414 -8.83566 64.7006
lradius 40.6088
lwrist -19.8115
lhand -31.6616 -14.6657
lfingers 7.12502
lthumb -4.92195 15.2572
rfemur 1.07635 2.99317 14.9909
rtibia 28.9782
rfoot -13.2746 19.6317
rtoes -6.6146
lfemur -32.4551 9.76381 -11.552
ltibia 36.6025
lfoot -2.01518 -4.80234
ltoes -6.96156
107
root -6.78461 18.9143 -0.697519 705.01 79.9174 -19.889
lowerback -0.855348 0.268185 2.06549
upperback 10.7238 0.326882 3.00869
thorax 11.9838 0.33536 2.17688
lowerneck 6.24584 0.799504 -0.363191
upperneck 13.2023 2.4404 -8.9617
head 3.34804 1.14472 -2.89224
rclavicle -8.94531e-015 -7.95139e-016
rhumerus -23.5627 -14.749 -78.3787
rradius 40.8802
rwrist 1.76176
rhand -10.388 14.8342
rfingers 7.12502
rthumb 15.6099 -14.556
lclavicle -8.94531e-015 -7.95139e-016
lhumerus -28.3235 -8.55732 64.2666
lradius 40.7317
lwrist -19.8661
lhand -31.8161 -14.6157
lfingers 7.12502
lthumb -5.07115 15.3036
rfemur 0.755182 3.0005 14.8654
rtibia 29.7301
rfoot -12.4022 19.4759
rtoes -7.60699
lfemur -32.2152 9.69541 -11.6805
ltibia 36.5061
lfoot -2.18001 -4.93757
ltoes -6.66418
